PathFileType   4   (X/Y/Z)
DataRate  CameraRate  NumFrames  NumMarkers  Units  OrigDataRate  OrigDataStartFrame  OrigNumFrames  
  120.0      120.0        4         37         mm      120.0          40        105
Frame#      Time                    midhip                           hip_r                           hip_l                          knee_r                          knee_l                         ankle_r                         ankle_l                         midasis                          asis_r                          asis_l                          psis_r                          psis_l                    epicondLat_r                    epicondLat_l                    epicondMed_r                    epicondMed_l                  malleolusLat_r                  malleolusLat_l                 malleolusMedv_r                 malleolusMedv_l                    sternalnotch                  xyphoidprocess                            neck                           toe_r                           toe_l                     thighwand_r                     thighwand_l                     upperleg1_r                     upperleg1_l                     upperleg2_r                     upperleg2_l                     shankwand_r                     shankwand_l                     lowerleg1_r                     lowerleg1_l                   subclavicle_r                   subclavicle_l            
              X1          Y1          Z1          X2          Y2          Z2          X3          Y3          Z3          X4          Y4          Z4          X5          Y5          Z5          X6          Y6          Z6          X7          Y7          Z7          X8          Y8          Z8          X9          Y9          Z9          X10          Y10          Z10          X11          Y11          Z11          X12          Y12          Z12          X13          Y13          Z13          X14          Y14          Z14          X15          Y15          Z15          X16          Y16          Z16          X17          Y17          Z17          X18          Y18          Z18          X19          Y19          Z19          X20          Y20          Z20          X21          Y21          Z21          X22          Y22          Z22          X23          Y23          Z23          X24          Y24          Z24          X25          Y25          Z25          X26          Y26          Z26          X27          Y27          Z27          X28          Y28          Z28          X29          Y29          Z29          X30          Y30          Z30          X31          Y31          Z31          X32          Y32          Z32          X33          Y33          Z33          X34          Y34          Z34          X35          Y35          Z35          X36          Y36          Z36          X37          Y37          Z37          

	40	0.45000	1701.298	753.246	-297.380	1695.908	751.295	-240.240	1706.689	755.196	-354.521	1790.329	407.917	-219.545	1572.634	430.187	-334.732	1915.041	76.339	-223.418	1484.055	70.873	-319.396	1735.801	826.030	-292.270	1740.652	828.497	-182.506	1730.950	823.564	-402.033	1561.129	855.100	-245.916	1561.132	853.259	-298.772	1827.071	423.754	-159.999	1586.707	408.564	-392.945	1801.964	408.929	-275.979	1595.030	418.274	-276.931	1908.795	74.051	-186.513	1476.270	71.478	-355.051	1917.435	76.060	-257.398	1478.641	75.071	-285.857	1728.428	1172.899	-298.330	1732.601	1070.878	-302.409	1624.979	1246.875	-295.248	1999.048	83.615	-214.703	1567.739	45.336	-319.316	1878.520	593.918	-193.982	1731.088	534.841	-419.908	1815.773	607.796	-155.978	1722.501	583.511	-353.726	1826.470	550.055	-159.710	1700.556	530.351	-343.772	1991.543	228.126	-194.018	1501.379	164.900	-450.026	1925.510	192.820	-212.191	1499.711	162.119	-369.970	1729.741	1172.119	-241.896	1732.634	1173.869	-348.452
	41	0.45833	1710.842	751.677	-297.127	1705.479	749.684	-239.985	1716.205	753.670	-354.269	1800.293	406.361	-219.670	1578.846	431.300	-334.564	1930.688	76.439	-224.015	1484.767	71.813	-319.409	1745.231	824.524	-292.019	1750.147	826.960	-182.314	1740.314	822.089	-401.723	1570.616	853.271	-245.596	1570.218	851.691	-298.522	1837.165	422.776	-160.221	1593.254	407.720	-392.738	1811.534	406.988	-274.808	1601.214	418.431	-277.311	1924.616	74.050	-187.087	1477.157	72.519	-355.099	1932.676	76.586	-258.082	1479.628	76.355	-285.937	1737.717	1171.223	-297.759	1741.835	1069.201	-301.880	1634.186	1245.321	-294.166	2014.527	85.128	-216.051	1568.206	45.658	-319.377	1888.027	592.542	-193.976	1738.626	533.070	-419.711	1825.508	606.288	-155.808	1731.208	582.364	-353.553	1836.243	548.856	-159.298	1708.226	528.915	-343.705	2004.570	229.691	-194.934	1504.312	165.432	-449.929	1939.093	193.591	-212.716	1502.588	162.914	-370.251	1739.248	1170.424	-241.080	1741.730	1172.209	-348.148
	42	0.46667	1720.470	750.115	-296.784	1715.141	748.110	-239.640	1725.799	752.120	-353.929	1810.111	405.245	-219.878	1584.641	432.816	-334.433	1944.716	76.249	-224.820	1485.496	72.927	-319.497	1754.741	823.058	-291.770	1759.711	825.482	-182.120	1749.771	820.635	-401.420	1580.164	851.434	-245.244	1579.469	850.138	-298.229	1847.352	421.846	-160.460	1600.228	406.802	-392.561	1821.274	406.725	-276.716	1606.838	419.287	-277.148	1938.719	73.747	-187.888	1478.112	73.725	-355.233	1947.027	76.363	-258.880	1480.631	77.716	-286.087	1746.851	1169.594	-297.370	1750.724	1067.566	-301.578	1643.764	1243.726	-292.969	2028.314	85.966	-217.299	1568.689	46.043	-319.428	1897.722	591.363	-194.062	1746.499	531.376	-419.526	1835.257	604.939	-155.741	1740.281	580.971	-353.322	1846.046	547.340	-159.826	1715.890	527.291	-343.407	2016.692	230.420	-195.684	1507.556	166.042	-449.903	1951.678	193.646	-213.754	1505.668	163.592	-370.582	1748.648	1168.751	-240.518	1750.628	1170.607	-347.958
	43	0.47500	1730.204	748.577	-296.442	1724.917	746.579	-239.294	1735.491	750.576	-353.591	1819.511	404.752	-220.149	1592.062	432.539	-334.341	1957.076	75.737	-225.805	1486.270	74.250	-319.672	1764.347	821.654	-291.539	1769.357	824.083	-181.922	1759.337	819.224	-401.156	1589.777	849.614	-244.838	1588.928	848.604	-297.855	1857.596	420.945	-160.740	1607.610	405.830	-392.405	1830.590	408.210	-280.969	1614.481	418.319	-277.024	1951.065	73.116	-188.883	1479.164	75.128	-355.463	1959.391	75.827	-259.850	1481.231	78.877	-286.269	1756.094	1168.056	-296.772	1759.967	1066.044	-301.340	1653.212	1242.021	-291.838	2040.400	85.986	-218.426	1569.191	46.485	-319.474	1907.612	590.377	-194.241	1754.726	529.787	-419.377	1845.027	603.631	-155.435	1749.139	579.185	-352.971	1855.749	545.941	-160.885	1724.254	525.567	-343.171	2027.946	230.264	-196.303	1511.115	166.741	-449.962	1963.081	193.002	-214.534	1508.538	164.036	-370.546	1757.909	1167.020	-240.259	1759.855	1169.241	-347.021
